<svg width="209" height="89" viewBox="0 0 209 89" fill="none" xmlns="http://www.w3.org/2000/svg">
<path d="M28.6337 0C15.8636 0 4.6066 10.5162 3.49107 23.4867L0 64H179.753C192.521 64 203.778 53.4874 204.894 40.5145L208.385 0H28.6337ZM201.44 40.2068C200.478 51.3853 190.749 60.4782 179.753 60.4782H3.78469L6.944 23.7943C7.90693 12.6159 17.6369 3.523 28.6337 3.523H204.598L201.44 40.2068Z" fill="#FFE600"/>
<path d="M0.54 82.16C0.54 80.92 0.88 79.9 1.56 79.1C2.248 78.3 3.22 77.9 4.476 77.9C5.732 77.9 6.704 78.3 7.392 79.1C8.08 79.9 8.424 80.92 8.424 82.16C8.424 83.408 8.08 84.432 7.392 85.232C6.704 86.024 5.732 86.42 4.476 86.42C3.22 86.42 2.248 86.024 1.56 85.232C0.88 84.432 0.54 83.408 0.54 82.16ZM2.676 80.024C2.26 80.576 2.052 81.288 2.052 82.16C2.052 83.032 2.26 83.748 2.676 84.308C3.1 84.86 3.7 85.136 4.476 85.136C5.26 85.136 5.86 84.86 6.276 84.308C6.7 83.748 6.912 83.032 6.912 82.16C6.912 81.288 6.7 80.576 6.276 80.024C5.86 79.464 5.26 79.184 4.476 79.184C3.7 79.184 3.1 79.464 2.676 80.024ZM9.86484 81.932C9.86484 80.892 10.1728 80.092 10.7888 79.532C11.4048 78.964 12.2528 78.68 13.3328 78.68V78.224C13.3328 78.008 13.3928 77.832 13.5128 77.696C13.6408 77.56 13.8208 77.492 14.0528 77.492C14.2768 77.492 14.4528 77.56 14.5808 77.696C14.7088 77.832 14.7728 78.008 14.7728 78.224V78.68C15.8448 78.68 16.6888 78.964 17.3048 79.532C17.9208 80.092 18.2288 80.892 18.2288 81.932C18.2288 82.964 17.9208 83.764 17.3048 84.332C16.6888 84.892 15.8448 85.172 14.7728 85.172V85.772C14.7728 85.988 14.7088 86.164 14.5808 86.3C14.4528 86.444 14.2768 86.516 14.0528 86.516C13.8208 86.516 13.6408 86.444 13.5128 86.3C13.3928 86.164 13.3328 85.988 13.3328 85.772V85.172C12.2608 85.172 11.4128 84.892 10.7888 84.332C10.1728 83.764 9.86484 82.964 9.86484 81.932ZM16.8248 81.932C16.8248 81.244 16.6248 80.716 16.2248 80.348C15.8248 79.98 15.3048 79.796 14.6648 79.796V84.044C15.3128 84.044 15.8328 83.868 16.2248 83.516C16.6248 83.164 16.8248 82.636 16.8248 81.932ZM11.2808 81.932C11.2808 82.636 11.4768 83.164 11.8688 83.516C12.2688 83.868 12.7928 84.044 13.4408 84.044V79.796C12.7928 79.796 12.2688 79.98 11.8688 80.348C11.4768 80.716 11.2808 81.244 11.2808 81.932ZM21.4702 78.764V83.792L25.3462 78.428C25.5462 78.156 25.7782 78.02 26.0422 78.02C26.4982 78.02 26.7262 78.268 26.7262 78.764V85.568C26.7262 85.784 26.6662 85.96 26.5462 86.096C26.4262 86.232 26.2502 86.3 26.0182 86.3C25.7782 86.3 25.5942 86.232 25.4662 86.096C25.3462 85.952 25.2862 85.776 25.2862 85.568V80.552L21.3862 85.88C21.1702 86.16 20.9462 86.3 20.7142 86.3C20.4982 86.3 20.3302 86.236 20.2102 86.108C20.0902 85.98 20.0302 85.8 20.0302 85.568V78.764C20.0302 78.548 20.0902 78.372 20.2102 78.236C20.3302 78.092 20.5102 78.02 20.7502 78.02C20.9822 78.02 21.1582 78.092 21.2782 78.236C21.4062 78.372 21.4702 78.548 21.4702 78.764ZM35.2582 78.764V85.016H35.6783C35.8863 85.016 36.0463 85.084 36.1583 85.22C36.2703 85.348 36.3263 85.516 36.3263 85.724V87.32C36.3263 87.536 36.2703 87.712 36.1583 87.848C36.0463 87.984 35.8783 88.052 35.6543 88.052C35.4303 88.052 35.2582 87.984 35.1383 87.848C35.0263 87.712 34.9703 87.536 34.9703 87.32V86.3H29.5942C29.3702 86.3 29.1942 86.232 29.0662 86.096C28.9462 85.96 28.8862 85.784 28.8862 85.568V78.764C28.8862 78.548 28.9462 78.372 29.0662 78.236C29.1942 78.092 29.3702 78.02 29.5942 78.02C29.8262 78.02 30.0062 78.092 30.1342 78.236C30.2623 78.372 30.3263 78.548 30.3263 78.764V85.016H33.8183V78.764C33.8183 78.548 33.8783 78.372 33.9983 78.236C34.1263 78.092 34.3063 78.02 34.5382 78.02C34.7622 78.02 34.9383 78.092 35.0663 78.236C35.1943 78.372 35.2582 78.548 35.2582 78.764ZM39.4519 78.764V83.792L43.3279 78.428C43.5279 78.156 43.7599 78.02 44.0239 78.02C44.4799 78.02 44.7079 78.268 44.7079 78.764V85.568C44.7079 85.784 44.6479 85.96 44.5279 86.096C44.4079 86.232 44.2319 86.3 43.9999 86.3C43.7599 86.3 43.5759 86.232 43.4479 86.096C43.3279 85.952 43.2679 85.776 43.2679 85.568V80.552L39.3679 85.88C39.1519 86.16 38.9279 86.3 38.6959 86.3C38.4799 86.3 38.3119 86.236 38.1919 86.108C38.0719 85.98 38.0119 85.8 38.0119 85.568V78.764C38.0119 78.548 38.0719 78.372 38.1919 78.236C38.3119 78.092 38.4919 78.02 38.7319 78.02C38.9639 78.02 39.1399 78.092 39.2599 78.236C39.3879 78.372 39.4519 78.548 39.4519 78.764ZM51.788 85.736L51.116 83.96H48.032L47.408 85.652C47.208 86.228 46.88 86.424 46.424 86.24C46.072 86.088 45.992 85.76 46.184 85.256L48.884 78.488C49.036 78.096 49.28 77.9 49.616 77.9C49.936 77.9 50.168 78.072 50.312 78.416L53.096 85.244C53.184 85.42 53.2 85.612 53.144 85.82C53.096 86.028 52.972 86.168 52.772 86.24C52.548 86.32 52.348 86.316 52.172 86.228C52.004 86.132 51.876 85.968 51.788 85.736ZM49.544 79.808L48.416 82.832H50.708L49.544 79.808ZM56.4724 78.02H60.0484C60.2804 78.02 60.4564 78.092 60.5764 78.236C60.7044 78.372 60.7684 78.548 60.7684 78.764V85.568C60.7684 85.784 60.7044 85.96 60.5764 86.096C60.4564 86.232 60.2804 86.3 60.0484 86.3C59.8164 86.3 59.6364 86.232 59.5084 86.096C59.3884 85.96 59.3284 85.784 59.3284 85.568V79.304H57.1084C57.0684 81.608 56.8844 83.348 56.5564 84.524C56.4044 85.06 56.1724 85.5 55.8604 85.844C55.5484 86.188 55.1684 86.36 54.7204 86.36C54.3844 86.36 54.1364 86.272 53.9764 86.096C53.8164 85.912 53.7684 85.688 53.8324 85.424C53.9044 85.136 54.1364 84.992 54.5284 84.992C54.8724 84.992 55.1244 84.724 55.2844 84.188C55.5804 83.236 55.7484 81.428 55.7884 78.764C55.7964 78.532 55.8604 78.352 55.9804 78.224C56.1004 78.088 56.2644 78.02 56.4724 78.02ZM62.9278 85.388V78.752C62.9278 78.536 62.9878 78.36 63.1078 78.224C63.2358 78.088 63.4158 78.02 63.6478 78.02C63.8718 78.02 64.0478 78.088 64.1758 78.224C64.3038 78.36 64.3678 78.536 64.3678 78.752V81.104C64.6878 81.04 65.0558 81.008 65.4718 81.008C66.4878 81.008 67.2678 81.212 67.8118 81.62C68.3558 82.028 68.6278 82.716 68.6278 83.684C68.6278 84.556 68.3398 85.22 67.7638 85.676C67.1878 86.132 66.4198 86.36 65.4598 86.36C64.6678 86.36 64.0478 86.312 63.5998 86.216C63.1518 86.112 62.9278 85.836 62.9278 85.388ZM65.3398 82.292C65.0438 82.292 64.7198 82.316 64.3678 82.364V85.004C64.7198 85.052 65.0718 85.076 65.4238 85.076C66.5518 85.076 67.1158 84.604 67.1158 83.66C67.1158 83.148 66.9558 82.792 66.6358 82.592C66.3238 82.392 65.8918 82.292 65.3398 82.292ZM75.5165 85.568V82.712H71.7005V85.568C71.7005 85.784 71.6365 85.96 71.5085 86.096C71.3805 86.232 71.2045 86.3 70.9805 86.3C70.7485 86.3 70.5685 86.232 70.4405 86.096C70.3205 85.96 70.2605 85.784 70.2605 85.568V78.764C70.2605 78.548 70.3205 78.372 70.4405 78.236C70.5685 78.092 70.7485 78.02 70.9805 78.02C71.2045 78.02 71.3805 78.092 71.5085 78.236C71.6365 78.372 71.7005 78.548 71.7005 78.764V81.428H75.5165V78.764C75.5165 78.548 75.5765 78.372 75.6965 78.236C75.8245 78.092 76.0045 78.02 76.2365 78.02C76.4605 78.02 76.6365 78.092 76.7645 78.236C76.8925 78.372 76.9565 78.548 76.9565 78.764V85.568C76.9565 85.784 76.8925 85.96 76.7645 86.096C76.6365 86.232 76.4605 86.3 76.2365 86.3C76.0045 86.3 75.8245 86.232 75.6965 86.096C75.5765 85.96 75.5165 85.784 75.5165 85.568ZM79.1166 85.388V78.752C79.1166 78.536 79.1766 78.36 79.2966 78.224C79.4246 78.088 79.6046 78.02 79.8366 78.02C80.0606 78.02 80.2366 78.088 80.3646 78.224C80.4926 78.36 80.5566 78.536 80.5566 78.752V81.092C80.8286 81.036 81.1886 81.008 81.6366 81.008C82.6286 81.008 83.3766 81.216 83.8806 81.632C84.3846 82.048 84.6366 82.732 84.6366 83.684C84.6366 84.54 84.3646 85.2 83.8206 85.664C83.2766 86.128 82.5326 86.36 81.5886 86.36C80.8366 86.36 80.2366 86.312 79.7886 86.216C79.3406 86.112 79.1166 85.836 79.1166 85.388ZM81.4686 82.292C81.2126 82.292 80.9086 82.316 80.5566 82.364V85.004C80.9086 85.052 81.2406 85.076 81.5526 85.076C82.6006 85.076 83.1246 84.604 83.1246 83.66C83.1246 83.164 82.9806 82.812 82.6926 82.604C82.4046 82.396 81.9966 82.292 81.4686 82.292ZM85.7406 85.568V78.764C85.7406 78.548 85.8006 78.372 85.9206 78.236C86.0486 78.092 86.2286 78.02 86.4606 78.02C86.6846 78.02 86.8606 78.092 86.9886 78.236C87.1166 78.372 87.1806 78.548 87.1806 78.764V85.568C87.1806 85.784 87.1166 85.96 86.9886 86.096C86.8606 86.232 86.6846 86.3 86.4606 86.3C86.2286 86.3 86.0486 86.232 85.9206 86.096C85.8006 85.96 85.7406 85.784 85.7406 85.568ZM90.7837 78.764V83.792L94.6597 78.428C94.8597 78.156 95.0917 78.02 95.3557 78.02C95.8117 78.02 96.0397 78.268 96.0397 78.764V85.568C96.0397 85.784 95.9797 85.96 95.8597 86.096C95.7397 86.232 95.5637 86.3 95.3317 86.3C95.0917 86.3 94.9077 86.232 94.7797 86.096C94.6597 85.952 94.5997 85.776 94.5997 85.568V80.552L90.6997 85.88C90.4837 86.16 90.2597 86.3 90.0277 86.3C89.8117 86.3 89.6437 86.236 89.5237 86.108C89.4037 85.98 89.3437 85.8 89.3437 85.568V78.764C89.3437 78.548 89.4037 78.372 89.5237 78.236C89.6437 78.092 89.8237 78.02 90.0637 78.02C90.2957 78.02 90.4717 78.092 90.5917 78.236C90.7197 78.372 90.7837 78.548 90.7837 78.764ZM93.7837 77.276C93.4557 77.42 93.0757 77.492 92.6437 77.492C92.2117 77.492 91.8277 77.42 91.4917 77.276C91.1557 77.124 90.9077 76.94 90.7477 76.724C90.5317 76.436 90.5317 76.192 90.7477 75.992C90.9637 75.784 91.2237 75.824 91.5277 76.112C91.8397 76.416 92.2117 76.568 92.6437 76.568C93.0757 76.568 93.4437 76.42 93.7477 76.124C94.0357 75.836 94.2957 75.792 94.5277 75.992C94.7437 76.176 94.7397 76.42 94.5157 76.724C94.3557 76.948 94.1117 77.132 93.7837 77.276ZM101.443 85.568V78.764C101.443 78.548 101.503 78.372 101.623 78.236C101.751 78.092 101.927 78.02 102.151 78.02H107.155C107.387 78.02 107.563 78.092 107.683 78.236C107.811 78.372 107.875 78.548 107.875 78.764V85.568C107.875 85.784 107.811 85.96 107.683 86.096C107.563 86.232 107.387 86.3 107.155 86.3C106.923 86.3 106.743 86.232 106.615 86.096C106.495 85.96 106.435 85.784 106.435 85.568V79.304H102.883V85.568C102.883 85.784 102.819 85.96 102.691 86.096C102.563 86.232 102.387 86.3 102.163 86.3C101.931 86.3 101.751 86.232 101.623 86.096C101.503 85.96 101.443 85.784 101.443 85.568ZM110.029 85.568V78.956C110.029 78.484 110.253 78.204 110.701 78.116C111.229 78.012 111.845 77.96 112.549 77.96C113.533 77.96 114.305 78.176 114.865 78.608C115.433 79.032 115.717 79.7 115.717 80.612C115.717 81.54 115.421 82.24 114.829 82.712C114.237 83.184 113.465 83.42 112.513 83.42C112.057 83.42 111.709 83.4 111.469 83.36V85.568C111.469 85.784 111.405 85.96 111.277 86.096C111.149 86.232 110.973 86.3 110.749 86.3C110.517 86.3 110.337 86.232 110.209 86.096C110.089 85.96 110.029 85.784 110.029 85.568ZM112.429 82.172C113.613 82.172 114.205 81.664 114.205 80.648C114.205 79.696 113.641 79.22 112.513 79.22C112.169 79.22 111.821 79.244 111.469 79.292V82.124C111.701 82.156 112.021 82.172 112.429 82.172ZM116.826 82.16C116.826 80.92 117.166 79.9 117.846 79.1C118.534 78.3 119.506 77.9 120.762 77.9C122.018 77.9 122.99 78.3 123.678 79.1C124.366 79.9 124.71 80.92 124.71 82.16C124.71 83.408 124.366 84.432 123.678 85.232C122.99 86.024 122.018 86.42 120.762 86.42C119.506 86.42 118.534 86.024 117.846 85.232C117.166 84.432 116.826 83.408 116.826 82.16ZM118.962 80.024C118.546 80.576 118.338 81.288 118.338 82.16C118.338 83.032 118.546 83.748 118.962 84.308C119.386 84.86 119.986 85.136 120.762 85.136C121.546 85.136 122.146 84.86 122.562 84.308C122.986 83.748 123.198 83.032 123.198 82.16C123.198 81.288 122.986 80.576 122.562 80.024C122.146 79.464 121.546 79.184 120.762 79.184C119.986 79.184 119.386 79.464 118.962 80.024ZM127.951 78.764V83.792L131.827 78.428C132.027 78.156 132.259 78.02 132.523 78.02C132.979 78.02 133.207 78.268 133.207 78.764V85.568C133.207 85.784 133.147 85.96 133.027 86.096C132.907 86.232 132.731 86.3 132.499 86.3C132.259 86.3 132.075 86.232 131.947 86.096C131.827 85.952 131.767 85.776 131.767 85.568V80.552L127.867 85.88C127.651 86.16 127.427 86.3 127.195 86.3C126.979 86.3 126.811 86.236 126.691 86.108C126.571 85.98 126.511 85.8 126.511 85.568V78.764C126.511 78.548 126.571 78.372 126.691 78.236C126.811 78.092 126.991 78.02 127.231 78.02C127.463 78.02 127.639 78.092 127.759 78.236C127.887 78.372 127.951 78.548 127.951 78.764ZM137.647 85.136C138.191 85.136 138.615 85.024 138.919 84.8C139.223 84.576 139.375 84.252 139.375 83.828C139.375 83.06 138.799 82.664 137.647 82.64H136.747C136.571 82.64 136.427 82.592 136.315 82.496C136.211 82.392 136.159 82.252 136.159 82.076C136.159 81.908 136.211 81.772 136.315 81.668C136.427 81.564 136.571 81.512 136.747 81.512H137.491C138.003 81.512 138.399 81.408 138.679 81.2C138.967 80.992 139.111 80.688 139.111 80.288C139.111 79.952 138.991 79.684 138.751 79.484C138.519 79.284 138.167 79.184 137.695 79.184C137.279 79.184 136.779 79.284 136.195 79.484C135.699 79.652 135.383 79.596 135.247 79.316C135.159 79.14 135.151 78.972 135.223 78.812C135.295 78.644 135.435 78.504 135.643 78.392C136.251 78.064 136.983 77.9 137.839 77.9C138.695 77.9 139.371 78.088 139.867 78.464C140.371 78.832 140.623 79.368 140.623 80.072C140.623 80.464 140.519 80.832 140.311 81.176C140.103 81.512 139.795 81.76 139.387 81.92C139.867 82.048 140.235 82.276 140.491 82.604C140.755 82.932 140.887 83.328 140.887 83.792C140.887 84.688 140.583 85.352 139.975 85.784C139.375 86.208 138.603 86.42 137.659 86.42C136.755 86.42 136.019 86.272 135.451 85.976C135.243 85.864 135.099 85.724 135.019 85.556C134.939 85.388 134.939 85.2 135.019 84.992C135.163 84.672 135.503 84.612 136.039 84.812C136.607 85.028 137.143 85.136 137.647 85.136ZM142.688 85.46V78.908C142.688 78.452 142.916 78.184 143.372 78.104C143.94 78.008 144.584 77.96 145.304 77.96C147.32 77.96 148.328 78.684 148.328 80.132C148.328 80.5 148.228 80.844 148.028 81.164C147.836 81.484 147.572 81.72 147.236 81.872C147.7 82.016 148.064 82.26 148.328 82.604C148.592 82.94 148.724 83.344 148.724 83.816C148.724 85.512 147.616 86.36 145.4 86.36C144.608 86.36 143.928 86.316 143.36 86.228C142.912 86.164 142.688 85.908 142.688 85.46ZM145.448 82.604H144.068V85.1C144.452 85.148 144.916 85.172 145.46 85.172C146.052 85.172 146.496 85.072 146.792 84.872C147.096 84.672 147.248 84.34 147.248 83.876C147.248 83.028 146.648 82.604 145.448 82.604ZM145.172 79.16C144.82 79.16 144.452 79.18 144.068 79.22V81.524H145.292C146.332 81.524 146.852 81.108 146.852 80.276C146.852 79.532 146.292 79.16 145.172 79.16ZM150.165 82.16C150.165 80.92 150.505 79.9 151.185 79.1C151.873 78.3 152.845 77.9 154.101 77.9C155.357 77.9 156.329 78.3 157.017 79.1C157.705 79.9 158.049 80.92 158.049 82.16C158.049 83.408 157.705 84.432 157.017 85.232C156.329 86.024 155.357 86.42 154.101 86.42C152.845 86.42 151.873 86.024 151.185 85.232C150.505 84.432 150.165 83.408 150.165 82.16ZM152.301 80.024C151.885 80.576 151.677 81.288 151.677 82.16C151.677 83.032 151.885 83.748 152.301 84.308C152.725 84.86 153.325 85.136 154.101 85.136C154.885 85.136 155.485 84.86 155.901 84.308C156.325 83.748 156.537 83.032 156.537 82.16C156.537 81.288 156.325 80.576 155.901 80.024C155.485 79.464 154.885 79.184 154.101 79.184C153.325 79.184 152.725 79.464 152.301 80.024ZM165.603 87.32V86.3H160.251V87.32C160.251 87.536 160.191 87.712 160.071 87.848C159.959 87.984 159.791 88.052 159.567 88.052C159.343 88.052 159.175 87.984 159.063 87.848C158.951 87.712 158.895 87.536 158.895 87.32V85.724C158.895 85.516 158.951 85.348 159.063 85.22C159.175 85.084 159.335 85.016 159.543 85.016H159.891C160.411 84.008 160.711 81.924 160.791 78.764C160.799 78.268 161.027 78.02 161.475 78.02H165.171C165.411 78.02 165.591 78.092 165.711 78.236C165.831 78.38 165.891 78.552 165.891 78.752V85.016H166.311C166.519 85.016 166.679 85.084 166.791 85.22C166.903 85.348 166.959 85.516 166.959 85.724V87.32C166.959 87.536 166.903 87.712 166.791 87.848C166.679 87.984 166.511 88.052 166.287 88.052C166.063 88.052 165.891 87.984 165.771 87.848C165.659 87.712 165.603 87.536 165.603 87.32ZM161.319 85.016H164.451V79.304H162.135C162.095 81.824 161.823 83.728 161.319 85.016ZM170.075 78.764V83.792L173.951 78.428C174.151 78.156 174.383 78.02 174.647 78.02C175.103 78.02 175.331 78.268 175.331 78.764V85.568C175.331 85.784 175.271 85.96 175.151 86.096C175.031 86.232 174.855 86.3 174.623 86.3C174.383 86.3 174.199 86.232 174.071 86.096C173.951 85.952 173.891 85.776 173.891 85.568V80.552L169.991 85.88C169.775 86.16 169.551 86.3 169.319 86.3C169.103 86.3 168.935 86.236 168.815 86.108C168.695 85.98 168.635 85.8 168.635 85.568V78.764C168.635 78.548 168.695 78.372 168.815 78.236C168.935 78.092 169.115 78.02 169.355 78.02C169.587 78.02 169.763 78.092 169.883 78.236C170.011 78.372 170.075 78.548 170.075 78.764ZM177.335 78.02H183.023C183.239 78.02 183.407 78.076 183.527 78.188C183.655 78.3 183.719 78.456 183.719 78.656C183.719 78.848 183.655 79.004 183.527 79.124C183.407 79.244 183.239 79.304 183.023 79.304H180.899V85.568C180.899 85.784 180.835 85.96 180.707 86.096C180.587 86.232 180.411 86.3 180.179 86.3C179.947 86.3 179.767 86.232 179.639 86.096C179.519 85.96 179.459 85.784 179.459 85.568V79.304H177.335C177.127 79.304 176.959 79.244 176.831 79.124C176.711 79.004 176.651 78.848 176.651 78.656C176.651 78.456 176.711 78.3 176.831 78.188C176.959 78.076 177.127 78.02 177.335 78.02ZM185.035 85.556V78.764C185.035 78.548 185.099 78.372 185.227 78.236C185.355 78.092 185.535 78.02 185.767 78.02H189.823C190.031 78.02 190.195 78.08 190.315 78.2C190.443 78.312 190.507 78.468 190.507 78.668C190.507 78.86 190.443 79.016 190.315 79.136C190.195 79.248 190.031 79.304 189.823 79.304H186.475V81.404H189.151C189.367 81.404 189.535 81.46 189.655 81.572C189.783 81.684 189.847 81.84 189.847 82.04C189.847 82.232 189.783 82.388 189.655 82.508C189.535 82.628 189.367 82.688 189.151 82.688H186.475V85.016H189.943C190.151 85.016 190.315 85.076 190.435 85.196C190.563 85.308 190.627 85.464 190.627 85.664C190.627 85.856 190.563 86.012 190.435 86.132C190.315 86.244 190.151 86.3 189.943 86.3H185.779C185.547 86.3 185.363 86.232 185.227 86.096C185.099 85.952 185.035 85.772 185.035 85.556ZM193.96 78.02H197.536C197.768 78.02 197.944 78.092 198.064 78.236C198.192 78.372 198.256 78.548 198.256 78.764V85.568C198.256 85.784 198.192 85.96 198.064 86.096C197.944 86.232 197.768 86.3 197.536 86.3C197.304 86.3 197.124 86.232 196.996 86.096C196.876 85.96 196.816 85.784 196.816 85.568V79.304H194.596C194.556 81.608 194.372 83.348 194.044 84.524C193.892 85.06 193.66 85.5 193.348 85.844C193.036 86.188 192.656 86.36 192.208 86.36C191.872 86.36 191.624 86.272 191.464 86.096C191.304 85.912 191.256 85.688 191.32 85.424C191.392 85.136 191.624 84.992 192.016 84.992C192.36 84.992 192.612 84.724 192.772 84.188C193.068 83.236 193.236 81.428 193.276 78.764C193.284 78.532 193.348 78.352 193.468 78.224C193.588 78.088 193.752 78.02 193.96 78.02ZM200.415 85.388V78.752C200.415 78.536 200.475 78.36 200.595 78.224C200.723 78.088 200.903 78.02 201.135 78.02C201.359 78.02 201.535 78.088 201.663 78.224C201.791 78.36 201.855 78.536 201.855 78.752V81.104C202.175 81.04 202.543 81.008 202.959 81.008C203.975 81.008 204.755 81.212 205.299 81.62C205.843 82.028 206.115 82.716 206.115 83.684C206.115 84.556 205.827 85.22 205.251 85.676C204.675 86.132 203.907 86.36 202.947 86.36C202.155 86.36 201.535 86.312 201.087 86.216C200.639 86.112 200.415 85.836 200.415 85.388ZM202.827 82.292C202.531 82.292 202.207 82.316 201.855 82.364V85.004C202.207 85.052 202.559 85.076 202.911 85.076C204.039 85.076 204.603 84.604 204.603 83.66C204.603 83.148 204.443 82.792 204.123 82.592C203.811 82.392 203.379 82.292 202.827 82.292Z" fill="white"/>
<path d="M32.7436 25.717C32.6707 26.5554 32.4534 27.2906 32.0893 27.9212C31.7263 28.5506 31.2593 29.0826 30.6917 29.5183C30.1241 29.9551 29.4721 30.2816 28.7393 30.4977C28.004 30.7149 27.2399 30.823 26.4446 30.823C25.6493 30.823 24.9014 30.7138 24.2055 30.4977C23.5084 30.2816 22.9154 29.9551 22.4218 29.5183C21.9271 29.0826 21.5525 28.5506 21.2982 27.9212C21.0427 27.2906 20.9514 26.5554 21.0242 25.717L21.5144 20.0214C21.5872 19.1959 21.8103 18.4678 22.1895 17.8384C22.5675 17.2077 23.0472 16.6828 23.6298 16.2624C24.2101 15.8432 24.8644 15.5261 25.5904 15.3159C26.3152 15.1069 27.055 15 27.8064 15C28.5578 15 29.2779 15.1139 29.9669 15.337C30.6559 15.5625 31.2535 15.8878 31.761 16.3164C32.2696 16.7439 32.6603 17.277 32.9297 17.9147C33.199 18.5524 33.2973 19.2851 33.2268 20.1095L32.7436 25.717ZM30.1438 20.6497C30.1877 20.1389 30.1438 19.7091 30.0131 19.3556C29.8802 19.0033 29.6906 18.7132 29.4456 18.4889C29.1982 18.2658 28.9138 18.0991 28.5913 17.9934C28.2665 17.89 27.9289 17.8372 27.574 17.8372C27.2191 17.8372 26.8677 17.89 26.5198 17.9934C26.1695 18.0991 25.8516 18.2646 25.5684 18.4889C25.284 18.7132 25.0447 19.0033 24.8517 19.3556C24.6575 19.7091 24.5396 20.1389 24.4945 20.6497L24.1061 25.1744C24.061 25.6853 24.1049 26.1198 24.2356 26.4803C24.3685 26.8408 24.5558 27.1332 24.8031 27.3587C25.0505 27.583 25.3384 27.7439 25.6701 27.8413C26.0007 27.9388 26.3441 27.987 26.6978 27.987C27.0538 27.987 27.3995 27.9388 27.7428 27.8413C28.0838 27.7439 28.3948 27.583 28.6803 27.3587C28.967 27.1332 29.2051 26.8408 29.3993 26.4803C29.5935 26.1186 29.7126 25.6841 29.7565 25.1744L30.1438 20.6497Z" fill="white"/>
<path d="M46.7436 25.717C46.6707 26.5554 46.4534 27.2906 46.0893 27.9212C45.7263 28.5506 45.2593 29.0826 44.6917 29.5183C44.1241 29.9551 43.4721 30.2816 42.7393 30.4977C42.004 30.7149 41.2399 30.823 40.4446 30.823C39.6493 30.823 38.9014 30.7138 38.2055 30.4977C37.5084 30.2816 36.9154 29.9551 36.4218 29.5183C35.9271 29.0826 35.5525 28.5506 35.2982 27.9212C35.0427 27.2906 34.9514 26.5554 35.0242 25.717L35.5144 20.0214C35.5872 19.1959 35.8103 18.4678 36.1895 17.8384C36.5675 17.2077 37.0472 16.6828 37.6298 16.2624C38.2101 15.8432 38.8644 15.5261 39.5904 15.3159C40.3152 15.1069 41.055 15 41.8064 15C42.5578 15 43.2779 15.1139 43.9669 15.337C44.6559 15.5625 45.2535 15.8878 45.761 16.3164C46.2696 16.7439 46.6603 17.277 46.9297 17.9147C47.199 18.5524 47.2973 19.2851 47.2268 20.1095L46.7436 25.717ZM44.1438 20.6497C44.1877 20.1389 44.1438 19.7091 44.0131 19.3556C43.8802 19.0033 43.6906 18.7132 43.4456 18.4889C43.1982 18.2658 42.9138 18.0991 42.5913 17.9934C42.2665 17.89 41.9289 17.8372 41.574 17.8372C41.2191 17.8372 40.8677 17.89 40.5198 17.9934C40.1695 18.0991 39.8516 18.2646 39.5684 18.4889C39.284 18.7132 39.0447 19.0033 38.8517 19.3556C38.6575 19.7091 38.5396 20.1389 38.4945 20.6497L38.1061 25.1744C38.061 25.6853 38.1049 26.1198 38.2356 26.4803C38.3685 26.8408 38.5558 27.1332 38.8031 27.3587C39.0505 27.583 39.3384 27.7439 39.6701 27.8413C40.0007 27.9388 40.3441 27.987 40.6978 27.987C41.0538 27.987 41.3995 27.9388 41.7428 27.8413C42.0838 27.7439 42.3948 27.583 42.6803 27.3587C42.967 27.1332 43.2051 26.8408 43.3993 26.4803C43.5935 26.1186 43.7126 25.6841 43.7565 25.1744L44.1438 20.6497Z" fill="white"/>
<path d="M60.7436 25.717C60.6707 26.5554 60.4534 27.2906 60.0893 27.9212C59.7263 28.5506 59.2593 29.0826 58.6917 29.5183C58.1241 29.9551 57.4721 30.2816 56.7393 30.4977C56.004 30.7149 55.2399 30.823 54.4446 30.823C53.6493 30.823 52.9014 30.7138 52.2055 30.4977C51.5084 30.2816 50.9154 29.9551 50.4218 29.5183C49.9271 29.0826 49.5525 28.5506 49.2982 27.9212C49.0427 27.2906 48.9514 26.5554 49.0242 25.717L49.5144 20.0214C49.5872 19.1959 49.8103 18.4678 50.1895 17.8384C50.5675 17.2077 51.0472 16.6828 51.6298 16.2624C52.2101 15.8432 52.8644 15.5261 53.5904 15.3159C54.3152 15.1069 55.055 15 55.8064 15C56.5578 15 57.2779 15.1139 57.9669 15.337C58.6559 15.5625 59.2535 15.8878 59.761 16.3164C60.2696 16.7439 60.6603 17.277 60.9297 17.9147C61.199 18.5524 61.2973 19.2851 61.2268 20.1095L60.7436 25.717ZM58.1438 20.6497C58.1877 20.1389 58.1438 19.7091 58.0131 19.3556C57.8802 19.0033 57.6906 18.7132 57.4456 18.4889C57.1982 18.2658 56.9138 18.0991 56.5913 17.9934C56.2665 17.89 55.9289 17.8372 55.574 17.8372C55.2191 17.8372 54.8677 17.89 54.5198 17.9934C54.1695 18.0991 53.8516 18.2646 53.5684 18.4889C53.284 18.7132 53.0447 19.0033 52.8517 19.3556C52.6575 19.7091 52.5396 20.1389 52.4945 20.6497L52.1061 25.1744C52.061 25.6853 52.1049 26.1198 52.2356 26.4803C52.3685 26.8408 52.5558 27.1332 52.8031 27.3587C53.0505 27.583 53.3384 27.7439 53.6701 27.8413C54.0007 27.9388 54.3441 27.987 54.6978 27.987C55.0538 27.987 55.3995 27.9388 55.7428 27.8413C56.0838 27.7439 56.3948 27.583 56.6803 27.3587C56.967 27.1332 57.2051 26.8408 57.3993 26.4803C57.5935 26.1186 57.7126 25.6841 57.7565 25.1744L58.1438 20.6497Z" fill="white"/>
<path d="M74.7436 25.717C74.6707 26.5554 74.4534 27.2906 74.0893 27.9212C73.7263 28.5506 73.2593 29.0826 72.6917 29.5183C72.1241 29.9551 71.4721 30.2816 70.7393 30.4977C70.004 30.7149 69.2399 30.823 68.4446 30.823C67.6493 30.823 66.9014 30.7138 66.2055 30.4977C65.5084 30.2816 64.9154 29.9551 64.4218 29.5183C63.9271 29.0826 63.5525 28.5506 63.2982 27.9212C63.0427 27.2906 62.9514 26.5554 63.0242 25.717L63.5144 20.0214C63.5872 19.1959 63.8103 18.4678 64.1895 17.8384C64.5675 17.2077 65.0472 16.6828 65.6298 16.2624C66.2101 15.8432 66.8644 15.5261 67.5904 15.3159C68.3152 15.1069 69.055 15 69.8064 15C70.5578 15 71.2779 15.1139 71.9669 15.337C72.6559 15.5625 73.2535 15.8878 73.761 16.3164C74.2696 16.7439 74.6603 17.277 74.9297 17.9147C75.199 18.5524 75.2973 19.2851 75.2268 20.1095L74.7436 25.717ZM72.1438 20.6497C72.1877 20.1389 72.1438 19.7091 72.0131 19.3556C71.8802 19.0033 71.6906 18.7132 71.4456 18.4889C71.1982 18.2658 70.9138 18.0991 70.5913 17.9934C70.2665 17.89 69.9289 17.8372 69.574 17.8372C69.2191 17.8372 68.8677 17.89 68.5198 17.9934C68.1695 18.0991 67.8516 18.2646 67.5684 18.4889C67.284 18.7132 67.0447 19.0033 66.8517 19.3556C66.6575 19.7091 66.5396 20.1389 66.4945 20.6497L66.1061 25.1744C66.061 25.6853 66.1049 26.1198 66.2356 26.4803C66.3685 26.8408 66.5558 27.1332 66.8031 27.3587C67.0505 27.583 67.3384 27.7439 67.6701 27.8413C68.0007 27.9388 68.3441 27.987 68.6978 27.987C69.0538 27.987 69.3995 27.9388 69.7428 27.8413C70.0838 27.7439 70.3948 27.583 70.6803 27.3587C70.967 27.1332 71.2051 26.8408 71.3993 26.4803C71.5935 26.1186 71.7126 25.6841 71.7565 25.1744L72.1438 20.6497Z" fill="white"/>
<path d="M88.7436 25.717C88.6707 26.5554 88.4534 27.2906 88.0893 27.9212C87.7263 28.5506 87.2593 29.0826 86.6917 29.5183C86.1241 29.9551 85.4721 30.2816 84.7393 30.4977C84.004 30.7149 83.2399 30.823 82.4446 30.823C81.6493 30.823 80.9014 30.7138 80.2055 30.4977C79.5084 30.2816 78.9154 29.9551 78.4218 29.5183C77.9271 29.0826 77.5525 28.5506 77.2982 27.9212C77.0427 27.2906 76.9514 26.5554 77.0242 25.717L77.5144 20.0214C77.5872 19.1959 77.8103 18.4678 78.1895 17.8384C78.5675 17.2077 79.0472 16.6828 79.6298 16.2624C80.2101 15.8432 80.8644 15.5261 81.5904 15.3159C82.3152 15.1069 83.055 15 83.8064 15C84.5578 15 85.2779 15.1139 85.9669 15.337C86.6559 15.5625 87.2535 15.8878 87.761 16.3164C88.2696 16.7439 88.6603 17.277 88.9297 17.9147C89.199 18.5524 89.2973 19.2851 89.2268 20.1095L88.7436 25.717ZM86.1438 20.6497C86.1877 20.1389 86.1438 19.7091 86.0131 19.3556C85.8802 19.0033 85.6906 18.7132 85.4456 18.4889C85.1982 18.2658 84.9138 18.0991 84.5913 17.9934C84.2665 17.89 83.9289 17.8372 83.574 17.8372C83.2191 17.8372 82.8677 17.89 82.5198 17.9934C82.1695 18.0991 81.8516 18.2646 81.5684 18.4889C81.284 18.7132 81.0447 19.0033 80.8517 19.3556C80.6575 19.7091 80.5396 20.1389 80.4945 20.6497L80.1061 25.1744C80.061 25.6853 80.1049 26.1198 80.2356 26.4803C80.3685 26.8408 80.5558 27.1332 80.8031 27.3587C81.0505 27.583 81.3384 27.7439 81.6701 27.8413C82.0007 27.9388 82.3441 27.987 82.6978 27.987C83.0538 27.987 83.3995 27.9388 83.7428 27.8413C84.0838 27.7439 84.3948 27.583 84.6803 27.3587C84.967 27.1332 85.2051 26.8408 85.3993 26.4803C85.5935 26.1186 85.7126 25.6841 85.7565 25.1744L86.1438 20.6497Z" fill="white"/>
<path d="M102.744 25.717C102.671 26.5554 102.453 27.2906 102.089 27.9212C101.726 28.5506 101.259 29.0826 100.692 29.5183C100.124 29.9551 99.4721 30.2816 98.7393 30.4977C98.004 30.7149 97.2399 30.823 96.4446 30.823C95.6493 30.823 94.9014 30.7138 94.2055 30.4977C93.5084 30.2816 92.9154 29.9551 92.4218 29.5183C91.9271 29.0826 91.5525 28.5506 91.2982 27.9212C91.0427 27.2906 90.9514 26.5554 91.0242 25.717L91.5144 20.0214C91.5872 19.1959 91.8103 18.4678 92.1895 17.8384C92.5675 17.2077 93.0472 16.6828 93.6298 16.2624C94.2101 15.8432 94.8644 15.5261 95.5904 15.3159C96.3152 15.1069 97.055 15 97.8064 15C98.5578 15 99.2779 15.1139 99.9669 15.337C100.656 15.5625 101.254 15.8878 101.761 16.3164C102.27 16.7439 102.66 17.277 102.93 17.9147C103.199 18.5524 103.297 19.2851 103.227 20.1095L102.744 25.717ZM100.144 20.6497C100.188 20.1389 100.144 19.7091 100.013 19.3556C99.8802 19.0033 99.6906 18.7132 99.4456 18.4889C99.1982 18.2658 98.9138 18.0991 98.5913 17.9934C98.2665 17.89 97.9289 17.8372 97.574 17.8372C97.2191 17.8372 96.8677 17.89 96.5198 17.9934C96.1695 18.0991 95.8516 18.2646 95.5684 18.4889C95.284 18.7132 95.0447 19.0033 94.8517 19.3556C94.6575 19.7091 94.5396 20.1389 94.4945 20.6497L94.1061 25.1744C94.061 25.6853 94.1049 26.1198 94.2356 26.4803C94.3685 26.8408 94.5558 27.1332 94.8031 27.3587C95.0505 27.583 95.3384 27.7439 95.6701 27.8413C96.0007 27.9388 96.3441 27.987 96.6978 27.987C97.0538 27.987 97.3995 27.9388 97.7428 27.8413C98.0838 27.7439 98.3948 27.583 98.6803 27.3587C98.967 27.1332 99.2051 26.8408 99.3993 26.4803C99.5935 26.1186 99.7126 25.6841 99.7565 25.1744L100.144 20.6497Z" fill="white"/>
<path d="M116.744 25.717C116.671 26.5554 116.453 27.2906 116.089 27.9212C115.726 28.5506 115.259 29.0826 114.692 29.5183C114.124 29.9551 113.472 30.2816 112.739 30.4977C112.004 30.7149 111.24 30.823 110.445 30.823C109.649 30.823 108.901 30.7138 108.205 30.4977C107.508 30.2816 106.915 29.9551 106.422 29.5183C105.927 29.0826 105.553 28.5506 105.298 27.9212C105.043 27.2906 104.951 26.5554 105.024 25.717L105.514 20.0214C105.587 19.1959 105.81 18.4678 106.189 17.8384C106.567 17.2077 107.047 16.6828 107.63 16.2624C108.21 15.8432 108.864 15.5261 109.59 15.3159C110.315 15.1069 111.055 15 111.806 15C112.558 15 113.278 15.1139 113.967 15.337C114.656 15.5625 115.254 15.8878 115.761 16.3164C116.27 16.7439 116.66 17.277 116.93 17.9147C117.199 18.5524 117.297 19.2851 117.227 20.1095L116.744 25.717ZM114.144 20.6497C114.188 20.1389 114.144 19.7091 114.013 19.3556C113.88 19.0033 113.691 18.7132 113.446 18.4889C113.198 18.2658 112.914 18.0991 112.591 17.9934C112.266 17.89 111.929 17.8372 111.574 17.8372C111.219 17.8372 110.868 17.89 110.52 17.9934C110.17 18.0991 109.852 18.2646 109.568 18.4889C109.284 18.7132 109.045 19.0033 108.852 19.3556C108.657 19.7091 108.54 20.1389 108.494 20.6497L108.106 25.1744C108.061 25.6853 108.105 26.1198 108.236 26.4803C108.368 26.8408 108.556 27.1332 108.803 27.3587C109.051 27.583 109.338 27.7439 109.67 27.8413C110.001 27.9388 110.344 27.987 110.698 27.987C111.054 27.987 111.399 27.9388 111.743 27.8413C112.084 27.7439 112.395 27.583 112.68 27.3587C112.967 27.1332 113.205 26.8408 113.399 26.4803C113.594 26.1186 113.713 25.6841 113.757 25.1744L114.144 20.6497Z" fill="white"/>
<path d="M130.744 25.717C130.671 26.5554 130.453 27.2906 130.089 27.9212C129.726 28.5506 129.259 29.0826 128.692 29.5183C128.124 29.9551 127.472 30.2816 126.739 30.4977C126.004 30.7149 125.24 30.823 124.445 30.823C123.649 30.823 122.901 30.7138 122.205 30.4977C121.508 30.2816 120.915 29.9551 120.422 29.5183C119.927 29.0826 119.553 28.5506 119.298 27.9212C119.043 27.2906 118.951 26.5554 119.024 25.717L119.514 20.0214C119.587 19.1959 119.81 18.4678 120.189 17.8384C120.567 17.2077 121.047 16.6828 121.63 16.2624C122.21 15.8432 122.864 15.5261 123.59 15.3159C124.315 15.1069 125.055 15 125.806 15C126.558 15 127.278 15.1139 127.967 15.337C128.656 15.5625 129.254 15.8878 129.761 16.3164C130.27 16.7439 130.66 17.277 130.93 17.9147C131.199 18.5524 131.297 19.2851 131.227 20.1095L130.744 25.717ZM128.144 20.6497C128.188 20.1389 128.144 19.7091 128.013 19.3556C127.88 19.0033 127.691 18.7132 127.446 18.4889C127.198 18.2658 126.914 18.0991 126.591 17.9934C126.266 17.89 125.929 17.8372 125.574 17.8372C125.219 17.8372 124.868 17.89 124.52 17.9934C124.17 18.0991 123.852 18.2646 123.568 18.4889C123.284 18.7132 123.045 19.0033 122.852 19.3556C122.657 19.7091 122.54 20.1389 122.494 20.6497L122.106 25.1744C122.061 25.6853 122.105 26.1198 122.236 26.4803C122.368 26.8408 122.556 27.1332 122.803 27.3587C123.051 27.583 123.338 27.7439 123.67 27.8413C124.001 27.9388 124.344 27.987 124.698 27.987C125.054 27.987 125.399 27.9388 125.743 27.8413C126.084 27.7439 126.395 27.583 126.68 27.3587C126.967 27.1332 127.205 26.8408 127.399 26.4803C127.594 26.1186 127.713 25.6841 127.757 25.1744L128.144 20.6497Z" fill="white"/>
<path d="M144.744 25.717C144.671 26.5554 144.453 27.2906 144.089 27.9212C143.726 28.5506 143.259 29.0826 142.692 29.5183C142.124 29.9551 141.472 30.2816 140.739 30.4977C140.004 30.7149 139.24 30.823 138.445 30.823C137.649 30.823 136.901 30.7138 136.205 30.4977C135.508 30.2816 134.915 29.9551 134.422 29.5183C133.927 29.0826 133.553 28.5506 133.298 27.9212C133.043 27.2906 132.951 26.5554 133.024 25.717L133.514 20.0214C133.587 19.1959 133.81 18.4678 134.189 17.8384C134.567 17.2077 135.047 16.6828 135.63 16.2624C136.21 15.8432 136.864 15.5261 137.59 15.3159C138.315 15.1069 139.055 15 139.806 15C140.558 15 141.278 15.1139 141.967 15.337C142.656 15.5625 143.254 15.8878 143.761 16.3164C144.27 16.7439 144.66 17.277 144.93 17.9147C145.199 18.5524 145.297 19.2851 145.227 20.1095L144.744 25.717ZM142.144 20.6497C142.188 20.1389 142.144 19.7091 142.013 19.3556C141.88 19.0033 141.691 18.7132 141.446 18.4889C141.198 18.2658 140.914 18.0991 140.591 17.9934C140.266 17.89 139.929 17.8372 139.574 17.8372C139.219 17.8372 138.868 17.89 138.52 17.9934C138.17 18.0991 137.852 18.2646 137.568 18.4889C137.284 18.7132 137.045 19.0033 136.852 19.3556C136.657 19.7091 136.54 20.1389 136.494 20.6497L136.106 25.1744C136.061 25.6853 136.105 26.1198 136.236 26.4803C136.368 26.8408 136.556 27.1332 136.803 27.3587C137.051 27.583 137.338 27.7439 137.67 27.8413C138.001 27.9388 138.344 27.987 138.698 27.987C139.054 27.987 139.399 27.9388 139.743 27.8413C140.084 27.7439 140.395 27.583 140.68 27.3587C140.967 27.1332 141.205 26.8408 141.399 26.4803C141.594 26.1186 141.713 25.6841 141.757 25.1744L142.144 20.6497Z" fill="white"/>
<path d="M158.744 25.717C158.671 26.5554 158.453 27.2906 158.089 27.9212C157.726 28.5506 157.259 29.0826 156.692 29.5183C156.124 29.9551 155.472 30.2816 154.739 30.4977C154.004 30.7149 153.24 30.823 152.445 30.823C151.649 30.823 150.901 30.7138 150.205 30.4977C149.508 30.2816 148.915 29.9551 148.422 29.5183C147.927 29.0826 147.553 28.5506 147.298 27.9212C147.043 27.2906 146.951 26.5554 147.024 25.717L147.514 20.0214C147.587 19.1959 147.81 18.4678 148.189 17.8384C148.567 17.2077 149.047 16.6828 149.63 16.2624C150.21 15.8432 150.864 15.5261 151.59 15.3159C152.315 15.1069 153.055 15 153.806 15C154.558 15 155.278 15.1139 155.967 15.337C156.656 15.5625 157.254 15.8878 157.761 16.3164C158.27 16.7439 158.66 17.277 158.93 17.9147C159.199 18.5524 159.297 19.2851 159.227 20.1095L158.744 25.717ZM156.144 20.6497C156.188 20.1389 156.144 19.7091 156.013 19.3556C155.88 19.0033 155.691 18.7132 155.446 18.4889C155.198 18.2658 154.914 18.0991 154.591 17.9934C154.266 17.89 153.929 17.8372 153.574 17.8372C153.219 17.8372 152.868 17.89 152.52 17.9934C152.17 18.0991 151.852 18.2646 151.568 18.4889C151.284 18.7132 151.045 19.0033 150.852 19.3556C150.657 19.7091 150.54 20.1389 150.494 20.6497L150.106 25.1744C150.061 25.6853 150.105 26.1198 150.236 26.4803C150.368 26.8408 150.556 27.1332 150.803 27.3587C151.051 27.583 151.338 27.7439 151.67 27.8413C152.001 27.9388 152.344 27.987 152.698 27.987C153.054 27.987 153.399 27.9388 153.743 27.8413C154.084 27.7439 154.395 27.583 154.68 27.3587C154.967 27.1332 155.205 26.8408 155.399 26.4803C155.594 26.1186 155.713 25.6841 155.757 25.1744L156.144 20.6497Z" fill="white"/>
<path d="M172.744 25.717C172.671 26.5554 172.453 27.2906 172.089 27.9212C171.726 28.5506 171.259 29.0826 170.692 29.5183C170.124 29.9551 169.472 30.2816 168.739 30.4977C168.004 30.7149 167.24 30.823 166.445 30.823C165.649 30.823 164.901 30.7138 164.205 30.4977C163.508 30.2816 162.915 29.9551 162.422 29.5183C161.927 29.0826 161.553 28.5506 161.298 27.9212C161.043 27.2906 160.951 26.5554 161.024 25.717L161.514 20.0214C161.587 19.1959 161.81 18.4678 162.189 17.8384C162.567 17.2077 163.047 16.6828 163.63 16.2624C164.21 15.8432 164.864 15.5261 165.59 15.3159C166.315 15.1069 167.055 15 167.806 15C168.558 15 169.278 15.1139 169.967 15.337C170.656 15.5625 171.254 15.8878 171.761 16.3164C172.27 16.7439 172.66 17.277 172.93 17.9147C173.199 18.5524 173.297 19.2851 173.227 20.1095L172.744 25.717ZM170.144 20.6497C170.188 20.1389 170.144 19.7091 170.013 19.3556C169.88 19.0033 169.691 18.7132 169.446 18.4889C169.198 18.2658 168.914 18.0991 168.591 17.9934C168.266 17.89 167.929 17.8372 167.574 17.8372C167.219 17.8372 166.868 17.89 166.52 17.9934C166.17 18.0991 165.852 18.2646 165.568 18.4889C165.284 18.7132 165.045 19.0033 164.852 19.3556C164.657 19.7091 164.54 20.1389 164.494 20.6497L164.106 25.1744C164.061 25.6853 164.105 26.1198 164.236 26.4803C164.368 26.8408 164.556 27.1332 164.803 27.3587C165.051 27.583 165.338 27.7439 165.67 27.8413C166.001 27.9388 166.344 27.987 166.698 27.987C167.054 27.987 167.399 27.9388 167.743 27.8413C168.084 27.7439 168.395 27.583 168.68 27.3587C168.967 27.1332 169.205 26.8408 169.399 26.4803C169.594 26.1186 169.713 25.6841 169.757 25.1744L170.144 20.6497Z" fill="white"/>
<path d="M186.744 25.717C186.671 26.5554 186.453 27.2906 186.089 27.9212C185.726 28.5506 185.259 29.0826 184.692 29.5183C184.124 29.9551 183.472 30.2816 182.739 30.4977C182.004 30.7149 181.24 30.823 180.445 30.823C179.649 30.823 178.901 30.7138 178.205 30.4977C177.508 30.2816 176.915 29.9551 176.422 29.5183C175.927 29.0826 175.553 28.5506 175.298 27.9212C175.043 27.2906 174.951 26.5554 175.024 25.717L175.514 20.0214C175.587 19.1959 175.81 18.4678 176.189 17.8384C176.567 17.2077 177.047 16.6828 177.63 16.2624C178.21 15.8432 178.864 15.5261 179.59 15.3159C180.315 15.1069 181.055 15 181.806 15C182.558 15 183.278 15.1139 183.967 15.337C184.656 15.5625 185.254 15.8878 185.761 16.3164C186.27 16.7439 186.66 17.277 186.93 17.9147C187.199 18.5524 187.297 19.2851 187.227 20.1095L186.744 25.717ZM184.144 20.6497C184.188 20.1389 184.144 19.7091 184.013 19.3556C183.88 19.0033 183.691 18.7132 183.446 18.4889C183.198 18.2658 182.914 18.0991 182.591 17.9934C182.266 17.89 181.929 17.8372 181.574 17.8372C181.219 17.8372 180.868 17.89 180.52 17.9934C180.17 18.0991 179.852 18.2646 179.568 18.4889C179.284 18.7132 179.045 19.0033 178.852 19.3556C178.657 19.7091 178.54 20.1389 178.494 20.6497L178.106 25.1744C178.061 25.6853 178.105 26.1198 178.236 26.4803C178.368 26.8408 178.556 27.1332 178.803 27.3587C179.051 27.583 179.338 27.7439 179.67 27.8413C180.001 27.9388 180.344 27.987 180.698 27.987C181.054 27.987 181.399 27.9388 181.743 27.8413C182.084 27.7439 182.395 27.583 182.68 27.3587C182.967 27.1332 183.205 26.8408 183.399 26.4803C183.594 26.1186 183.713 25.6841 183.757 25.1744L184.144 20.6497Z" fill="white"/>
<path d="M32.7436 44.717C32.6707 45.5554 32.4534 46.2906 32.0893 46.9212C31.7263 47.5506 31.2593 48.0826 30.6917 48.5183C30.1241 48.9551 29.4721 49.2816 28.7393 49.4977C28.004 49.7149 27.2399 49.823 26.4446 49.823C25.6493 49.823 24.9014 49.7138 24.2055 49.4977C23.5084 49.2816 22.9154 48.9551 22.4218 48.5183C21.9271 48.0826 21.5525 47.5506 21.2982 46.9212C21.0427 46.2906 20.9514 45.5554 21.0242 44.717L21.5144 39.0214C21.5872 38.1959 21.8103 37.4678 22.1895 36.8384C22.5675 36.2077 23.0472 35.6828 23.6298 35.2624C24.2101 34.8432 24.8644 34.5261 25.5904 34.3159C26.3152 34.1069 27.055 34 27.8064 34C28.5578 34 29.2779 34.1139 29.9669 34.337C30.6559 34.5625 31.2535 34.8878 31.761 35.3164C32.2696 35.7439 32.6603 36.277 32.9297 36.9147C33.199 37.5524 33.2973 38.2851 33.2268 39.1095L32.7436 44.717ZM30.1438 39.6497C30.1877 39.1389 30.1438 38.7091 30.0131 38.3556C29.8802 38.0033 29.6906 37.7132 29.4456 37.4889C29.1982 37.2658 28.9138 37.0991 28.5913 36.9934C28.2665 36.89 27.9289 36.8372 27.574 36.8372C27.2191 36.8372 26.8677 36.89 26.5198 36.9934C26.1695 37.0991 25.8516 37.2646 25.5684 37.4889C25.284 37.7132 25.0447 38.0033 24.8517 38.3556C24.6575 38.7091 24.5396 39.1389 24.4945 39.6497L24.1061 44.1744C24.061 44.6853 24.1049 45.1198 24.2356 45.4803C24.3685 45.8408 24.5558 46.1332 24.8031 46.3587C25.0505 46.583 25.3384 46.7439 25.6701 46.8413C26.0007 46.9388 26.3441 46.987 26.6978 46.987C27.0538 46.987 27.3995 46.9388 27.7428 46.8413C28.0838 46.7439 28.3948 46.583 28.6803 46.3587C28.967 46.1332 29.2051 45.8408 29.3993 45.4803C29.5935 45.1186 29.7126 44.6841 29.7565 44.1744L30.1438 39.6497Z" fill="white"/>
<path d="M46.7436 44.717C46.6707 45.5554 46.4534 46.2906 46.0893 46.9212C45.7263 47.5506 45.2593 48.0826 44.6917 48.5183C44.1241 48.9551 43.4721 49.2816 42.7393 49.4977C42.004 49.7149 41.2399 49.823 40.4446 49.823C39.6493 49.823 38.9014 49.7138 38.2055 49.4977C37.5084 49.2816 36.9154 48.9551 36.4218 48.5183C35.9271 48.0826 35.5525 47.5506 35.2982 46.9212C35.0427 46.2906 34.9514 45.5554 35.0242 44.717L35.5144 39.0214C35.5872 38.1959 35.8103 37.4678 36.1895 36.8384C36.5675 36.2077 37.0472 35.6828 37.6298 35.2624C38.2101 34.8432 38.8644 34.5261 39.5904 34.3159C40.3152 34.1069 41.055 34 41.8064 34C42.5578 34 43.2779 34.1139 43.9669 34.337C44.6559 34.5625 45.2535 34.8878 45.761 35.3164C46.2696 35.7439 46.6603 36.277 46.9297 36.9147C47.199 37.5524 47.2973 38.2851 47.2268 39.1095L46.7436 44.717ZM44.1438 39.6497C44.1877 39.1389 44.1438 38.7091 44.0131 38.3556C43.8802 38.0033 43.6906 37.7132 43.4456 37.4889C43.1982 37.2658 42.9138 37.0991 42.5913 36.9934C42.2665 36.89 41.9289 36.8372 41.574 36.8372C41.2191 36.8372 40.8677 36.89 40.5198 36.9934C40.1695 37.0991 39.8516 37.2646 39.5684 37.4889C39.284 37.7132 39.0447 38.0033 38.8517 38.3556C38.6575 38.7091 38.5396 39.1389 38.4945 39.6497L38.1061 44.1744C38.061 44.6853 38.1049 45.1198 38.2356 45.4803C38.3685 45.8408 38.5558 46.1332 38.8031 46.3587C39.0505 46.583 39.3384 46.7439 39.6701 46.8413C40.0007 46.9388 40.3441 46.987 40.6978 46.987C41.0538 46.987 41.3995 46.9388 41.7428 46.8413C42.0838 46.7439 42.3948 46.583 42.6803 46.3587C42.967 46.1332 43.2051 45.8408 43.3993 45.4803C43.5935 45.1186 43.7126 44.6841 43.7565 44.1744L44.1438 39.6497Z" fill="white"/>
<path d="M60.7436 44.717C60.6707 45.5554 60.4534 46.2906 60.0893 46.9212C59.7263 47.5506 59.2593 48.0826 58.6917 48.5183C58.1241 48.9551 57.4721 49.2816 56.7393 49.4977C56.004 49.7149 55.2399 49.823 54.4446 49.823C53.6493 49.823 52.9014 49.7138 52.2055 49.4977C51.5084 49.2816 50.9154 48.9551 50.4218 48.5183C49.9271 48.0826 49.5525 47.5506 49.2982 46.9212C49.0427 46.2906 48.9514 45.5554 49.0242 44.717L49.5144 39.0214C49.5872 38.1959 49.8103 37.4678 50.1895 36.8384C50.5675 36.2077 51.0472 35.6828 51.6298 35.2624C52.2101 34.8432 52.8644 34.5261 53.5904 34.3159C54.3152 34.1069 55.055 34 55.8064 34C56.5578 34 57.2779 34.1139 57.9669 34.337C58.6559 34.5625 59.2535 34.8878 59.761 35.3164C60.2696 35.7439 60.6603 36.277 60.9297 36.9147C61.199 37.5524 61.2973 38.2851 61.2268 39.1095L60.7436 44.717ZM58.1438 39.6497C58.1877 39.1389 58.1438 38.7091 58.0131 38.3556C57.8802 38.0033 57.6906 37.7132 57.4456 37.4889C57.1982 37.2658 56.9138 37.0991 56.5913 36.9934C56.2665 36.89 55.9289 36.8372 55.574 36.8372C55.2191 36.8372 54.8677 36.89 54.5198 36.9934C54.1695 37.0991 53.8516 37.2646 53.5684 37.4889C53.284 37.7132 53.0447 38.0033 52.8517 38.3556C52.6575 38.7091 52.5396 39.1389 52.4945 39.6497L52.1061 44.1744C52.061 44.6853 52.1049 45.1198 52.2356 45.4803C52.3685 45.8408 52.5558 46.1332 52.8031 46.3587C53.0505 46.583 53.3384 46.7439 53.6701 46.8413C54.0007 46.9388 54.3441 46.987 54.6978 46.987C55.0538 46.987 55.3995 46.9388 55.7428 46.8413C56.0838 46.7439 56.3948 46.583 56.6803 46.3587C56.967 46.1332 57.2051 45.8408 57.3993 45.4803C57.5935 45.1186 57.7126 44.6841 57.7565 44.1744L58.1438 39.6497Z" fill="white"/>
<path d="M74.7436 44.717C74.6707 45.5554 74.4534 46.2906 74.0893 46.9212C73.7263 47.5506 73.2593 48.0826 72.6917 48.5183C72.1241 48.9551 71.4721 49.2816 70.7393 49.4977C70.004 49.7149 69.2399 49.823 68.4446 49.823C67.6493 49.823 66.9014 49.7138 66.2055 49.4977C65.5084 49.2816 64.9154 48.9551 64.4218 48.5183C63.9271 48.0826 63.5525 47.5506 63.2982 46.9212C63.0427 46.2906 62.9514 45.5554 63.0242 44.717L63.5144 39.0214C63.5872 38.1959 63.8103 37.4678 64.1895 36.8384C64.5675 36.2077 65.0472 35.6828 65.6298 35.2624C66.2101 34.8432 66.8644 34.5261 67.5904 34.3159C68.3152 34.1069 69.055 34 69.8064 34C70.5578 34 71.2779 34.1139 71.9669 34.337C72.6559 34.5625 73.2535 34.8878 73.761 35.3164C74.2696 35.7439 74.6603 36.277 74.9297 36.9147C75.199 37.5524 75.2973 38.2851 75.2268 39.1095L74.7436 44.717ZM72.1438 39.6497C72.1877 39.1389 72.1438 38.7091 72.0131 38.3556C71.8802 38.0033 71.6906 37.7132 71.4456 37.4889C71.1982 37.2658 70.9138 37.0991 70.5913 36.9934C70.2665 36.89 69.9289 36.8372 69.574 36.8372C69.2191 36.8372 68.8677 36.89 68.5198 36.9934C68.1695 37.0991 67.8516 37.2646 67.5684 37.4889C67.284 37.7132 67.0447 38.0033 66.8517 38.3556C66.6575 38.7091 66.5396 39.1389 66.4945 39.6497L66.1061 44.1744C66.061 44.6853 66.1049 45.1198 66.2356 45.4803C66.3685 45.8408 66.5558 46.1332 66.8031 46.3587C67.0505 46.583 67.3384 46.7439 67.6701 46.8413C68.0007 46.9388 68.3441 46.987 68.6978 46.987C69.0538 46.987 69.3995 46.9388 69.7428 46.8413C70.0838 46.7439 70.3948 46.583 70.6803 46.3587C70.967 46.1332 71.2051 45.8408 71.3993 45.4803C71.5935 45.1186 71.7126 44.6841 71.7565 44.1744L72.1438 39.6497Z" fill="white"/>
<path d="M88.7436 44.717C88.6707 45.5554 88.4534 46.2906 88.0893 46.9212C87.7263 47.5506 87.2593 48.0826 86.6917 48.5183C86.1241 48.9551 85.4721 49.2816 84.7393 49.4977C84.004 49.7149 83.2399 49.823 82.4446 49.823C81.6493 49.823 80.9014 49.7138 80.2055 49.4977C79.5084 49.2816 78.9154 48.9551 78.4218 48.5183C77.9271 48.0826 77.5525 47.5506 77.2982 46.9212C77.0427 46.2906 76.9514 45.5554 77.0242 44.717L77.5144 39.0214C77.5872 38.1959 77.8103 37.4678 78.1895 36.8384C78.5675 36.2077 79.0472 35.6828 79.6298 35.2624C80.2101 34.8432 80.8644 34.5261 81.5904 34.3159C82.3152 34.1069 83.055 34 83.8064 34C84.5578 34 85.2779 34.1139 85.9669 34.337C86.6559 34.5625 87.2535 34.8878 87.761 35.3164C88.2696 35.7439 88.6603 36.277 88.9297 36.9147C89.199 37.5524 89.2973 38.2851 89.2268 39.1095L88.7436 44.717ZM86.1438 39.6497C86.1877 39.1389 86.1438 38.7091 86.0131 38.3556C85.8802 38.0033 85.6906 37.7132 85.4456 37.4889C85.1982 37.2658 84.9138 37.0991 84.5913 36.9934C84.2665 36.89 83.9289 36.8372 83.574 36.8372C83.2191 36.8372 82.8677 36.89 82.5198 36.9934C82.1695 37.0991 81.8516 37.2646 81.5684 37.4889C81.284 37.7132 81.0447 38.0033 80.8517 38.3556C80.6575 38.7091 80.5396 39.1389 80.4945 39.6497L80.1061 44.1744C80.061 44.6853 80.1049 45.1198 80.2356 45.4803C80.3685 45.8408 80.5558 46.1332 80.8031 46.3587C81.0505 46.583 81.3384 46.7439 81.6701 46.8413C82.0007 46.9388 82.3441 46.987 82.6978 46.987C83.0538 46.987 83.3995 46.9388 83.7428 46.8413C84.0838 46.7439 84.3948 46.583 84.6803 46.3587C84.967 46.1332 85.2051 45.8408 85.3993 45.4803C85.5935 45.1186 85.7126 44.6841 85.7565 44.1744L86.1438 39.6497Z" fill="white"/>
<path d="M102.744 44.717C102.671 45.5554 102.453 46.2906 102.089 46.9212C101.726 47.5506 101.259 48.0826 100.692 48.5183C100.124 48.9551 99.4721 49.2816 98.7393 49.4977C98.004 49.7149 97.2399 49.823 96.4446 49.823C95.6493 49.823 94.9014 49.7138 94.2055 49.4977C93.5084 49.2816 92.9154 48.9551 92.4218 48.5183C91.9271 48.0826 91.5525 47.5506 91.2982 46.9212C91.0427 46.2906 90.9514 45.5554 91.0242 44.717L91.5144 39.0214C91.5872 38.1959 91.8103 37.4678 92.1895 36.8384C92.5675 36.2077 93.0472 35.6828 93.6298 35.2624C94.2101 34.8432 94.8644 34.5261 95.5904 34.3159C96.3152 34.1069 97.055 34 97.8064 34C98.5578 34 99.2779 34.1139 99.9669 34.337C100.656 34.5625 101.254 34.8878 101.761 35.3164C102.27 35.7439 102.66 36.277 102.93 36.9147C103.199 37.5524 103.297 38.2851 103.227 39.1095L102.744 44.717ZM100.144 39.6497C100.188 39.1389 100.144 38.7091 100.013 38.3556C99.8802 38.0033 99.6906 37.7132 99.4456 37.4889C99.1982 37.2658 98.9138 37.0991 98.5913 36.9934C98.2665 36.89 97.9289 36.8372 97.574 36.8372C97.2191 36.8372 96.8677 36.89 96.5198 36.9934C96.1695 37.0991 95.8516 37.2646 95.5684 37.4889C95.284 37.7132 95.0447 38.0033 94.8517 38.3556C94.6575 38.7091 94.5396 39.1389 94.4945 39.6497L94.1061 44.1744C94.061 44.6853 94.1049 45.1198 94.2356 45.4803C94.3685 45.8408 94.5558 46.1332 94.8031 46.3587C95.0505 46.583 95.3384 46.7439 95.6701 46.8413C96.0007 46.9388 96.3441 46.987 96.6978 46.987C97.0538 46.987 97.3995 46.9388 97.7428 46.8413C98.0838 46.7439 98.3948 46.583 98.6803 46.3587C98.967 46.1332 99.2051 45.8408 99.3993 45.4803C99.5935 45.1186 99.7126 44.6841 99.7565 44.1744L100.144 39.6497Z" fill="white"/>
<path d="M116.744 44.717C116.671 45.5554 116.453 46.2906 116.089 46.9212C115.726 47.5506 115.259 48.0826 114.692 48.5183C114.124 48.9551 113.472 49.2816 112.739 49.4977C112.004 49.7149 111.24 49.823 110.445 49.823C109.649 49.823 108.901 49.7138 108.205 49.4977C107.508 49.2816 106.915 48.9551 106.422 48.5183C105.927 48.0826 105.553 47.5506 105.298 46.9212C105.043 46.2906 104.951 45.5554 105.024 44.717L105.514 39.0214C105.587 38.1959 105.81 37.4678 106.189 36.8384C106.567 36.2077 107.047 35.6828 107.63 35.2624C108.21 34.8432 108.864 34.5261 109.59 34.3159C110.315 34.1069 111.055 34 111.806 34C112.558 34 113.278 34.1139 113.967 34.337C114.656 34.5625 115.254 34.8878 115.761 35.3164C116.27 35.7439 116.66 36.277 116.93 36.9147C117.199 37.5524 117.297 38.2851 117.227 39.1095L116.744 44.717ZM114.144 39.6497C114.188 39.1389 114.144 38.7091 114.013 38.3556C113.88 38.0033 113.691 37.7132 113.446 37.4889C113.198 37.2658 112.914 37.0991 112.591 36.9934C112.266 36.89 111.929 36.8372 111.574 36.8372C111.219 36.8372 110.868 36.89 110.52 36.9934C110.17 37.0991 109.852 37.2646 109.568 37.4889C109.284 37.7132 109.045 38.0033 108.852 38.3556C108.657 38.7091 108.54 39.1389 108.494 39.6497L108.106 44.1744C108.061 44.6853 108.105 45.1198 108.236 45.4803C108.368 45.8408 108.556 46.1332 108.803 46.3587C109.051 46.583 109.338 46.7439 109.67 46.8413C110.001 46.9388 110.344 46.987 110.698 46.987C111.054 46.987 111.399 46.9388 111.743 46.8413C112.084 46.7439 112.395 46.583 112.68 46.3587C112.967 46.1332 113.205 45.8408 113.399 45.4803C113.594 45.1186 113.713 44.6841 113.757 44.1744L114.144 39.6497Z" fill="white"/>
<path d="M130.744 44.717C130.671 45.5554 130.453 46.2906 130.089 46.9212C129.726 47.5506 129.259 48.0826 128.692 48.5183C128.124 48.9551 127.472 49.2816 126.739 49.4977C126.004 49.7149 125.24 49.823 124.445 49.823C123.649 49.823 122.901 49.7138 122.205 49.4977C121.508 49.2816 120.915 48.9551 120.422 48.5183C119.927 48.0826 119.553 47.5506 119.298 46.9212C119.043 46.2906 118.951 45.5554 119.024 44.717L119.514 39.0214C119.587 38.1959 119.81 37.4678 120.189 36.8384C120.567 36.2077 121.047 35.6828 121.63 35.2624C122.21 34.8432 122.864 34.5261 123.59 34.3159C124.315 34.1069 125.055 34 125.806 34C126.558 34 127.278 34.1139 127.967 34.337C128.656 34.5625 129.254 34.8878 129.761 35.3164C130.27 35.7439 130.66 36.277 130.93 36.9147C131.199 37.5524 131.297 38.2851 131.227 39.1095L130.744 44.717ZM128.144 39.6497C128.188 39.1389 128.144 38.7091 128.013 38.3556C127.88 38.0033 127.691 37.7132 127.446 37.4889C127.198 37.2658 126.914 37.0991 126.591 36.9934C126.266 36.89 125.929 36.8372 125.574 36.8372C125.219 36.8372 124.868 36.89 124.52 36.9934C124.17 37.0991 123.852 37.2646 123.568 37.4889C123.284 37.7132 123.045 38.0033 122.852 38.3556C122.657 38.7091 122.54 39.1389 122.494 39.6497L122.106 44.1744C122.061 44.6853 122.105 45.1198 122.236 45.4803C122.368 45.8408 122.556 46.1332 122.803 46.3587C123.051 46.583 123.338 46.7439 123.67 46.8413C124.001 46.9388 124.344 46.987 124.698 46.987C125.054 46.987 125.399 46.9388 125.743 46.8413C126.084 46.7439 126.395 46.583 126.68 46.3587C126.967 46.1332 127.205 45.8408 127.399 45.4803C127.594 45.1186 127.713 44.6841 127.757 44.1744L128.144 39.6497Z" fill="white"/>
<path d="M144.744 44.717C144.671 45.5554 144.453 46.2906 144.089 46.9212C143.726 47.5506 143.259 48.0826 142.692 48.5183C142.124 48.9551 141.472 49.2816 140.739 49.4977C140.004 49.7149 139.24 49.823 138.445 49.823C137.649 49.823 136.901 49.7138 136.205 49.4977C135.508 49.2816 134.915 48.9551 134.422 48.5183C133.927 48.0826 133.553 47.5506 133.298 46.9212C133.043 46.2906 132.951 45.5554 133.024 44.717L133.514 39.0214C133.587 38.1959 133.81 37.4678 134.189 36.8384C134.567 36.2077 135.047 35.6828 135.63 35.2624C136.21 34.8432 136.864 34.5261 137.59 34.3159C138.315 34.1069 139.055 34 139.806 34C140.558 34 141.278 34.1139 141.967 34.337C142.656 34.5625 143.254 34.8878 143.761 35.3164C144.27 35.7439 144.66 36.277 144.93 36.9147C145.199 37.5524 145.297 38.2851 145.227 39.1095L144.744 44.717ZM142.144 39.6497C142.188 39.1389 142.144 38.7091 142.013 38.3556C141.88 38.0033 141.691 37.7132 141.446 37.4889C141.198 37.2658 140.914 37.0991 140.591 36.9934C140.266 36.89 139.929 36.8372 139.574 36.8372C139.219 36.8372 138.868 36.89 138.52 36.9934C138.17 37.0991 137.852 37.2646 137.568 37.4889C137.284 37.7132 137.045 38.0033 136.852 38.3556C136.657 38.7091 136.54 39.1389 136.494 39.6497L136.106 44.1744C136.061 44.6853 136.105 45.1198 136.236 45.4803C136.368 45.8408 136.556 46.1332 136.803 46.3587C137.051 46.583 137.338 46.7439 137.67 46.8413C138.001 46.9388 138.344 46.987 138.698 46.987C139.054 46.987 139.399 46.9388 139.743 46.8413C140.084 46.7439 140.395 46.583 140.68 46.3587C140.967 46.1332 141.205 45.8408 141.399 45.4803C141.594 45.1186 141.713 44.6841 141.757 44.1744L142.144 39.6497Z" fill="white"/>
<path d="M158.744 44.717C158.671 45.5554 158.453 46.2906 158.089 46.9212C157.726 47.5506 157.259 48.0826 156.692 48.5183C156.124 48.9551 155.472 49.2816 154.739 49.4977C154.004 49.7149 153.24 49.823 152.445 49.823C151.649 49.823 150.901 49.7138 150.205 49.4977C149.508 49.2816 148.915 48.9551 148.422 48.5183C147.927 48.0826 147.553 47.5506 147.298 46.9212C147.043 46.2906 146.951 45.5554 147.024 44.717L147.514 39.0214C147.587 38.1959 147.81 37.4678 148.189 36.8384C148.567 36.2077 149.047 35.6828 149.63 35.2624C150.21 34.8432 150.864 34.5261 151.59 34.3159C152.315 34.1069 153.055 34 153.806 34C154.558 34 155.278 34.1139 155.967 34.337C156.656 34.5625 157.254 34.8878 157.761 35.3164C158.27 35.7439 158.66 36.277 158.93 36.9147C159.199 37.5524 159.297 38.2851 159.227 39.1095L158.744 44.717ZM156.144 39.6497C156.188 39.1389 156.144 38.7091 156.013 38.3556C155.88 38.0033 155.691 37.7132 155.446 37.4889C155.198 37.2658 154.914 37.0991 154.591 36.9934C154.266 36.89 153.929 36.8372 153.574 36.8372C153.219 36.8372 152.868 36.89 152.52 36.9934C152.17 37.0991 151.852 37.2646 151.568 37.4889C151.284 37.7132 151.045 38.0033 150.852 38.3556C150.657 38.7091 150.54 39.1389 150.494 39.6497L150.106 44.1744C150.061 44.6853 150.105 45.1198 150.236 45.4803C150.368 45.8408 150.556 46.1332 150.803 46.3587C151.051 46.583 151.338 46.7439 151.67 46.8413C152.001 46.9388 152.344 46.987 152.698 46.987C153.054 46.987 153.399 46.9388 153.743 46.8413C154.084 46.7439 154.395 46.583 154.68 46.3587C154.967 46.1332 155.205 45.8408 155.399 45.4803C155.594 45.1186 155.713 44.6841 155.757 44.1744L156.144 39.6497Z" fill="white"/>
<path d="M172.744 44.717C172.671 45.5554 172.453 46.2906 172.089 46.9212C171.726 47.5506 171.259 48.0826 170.692 48.5183C170.124 48.9551 169.472 49.2816 168.739 49.4977C168.004 49.7149 167.24 49.823 166.445 49.823C165.649 49.823 164.901 49.7138 164.205 49.4977C163.508 49.2816 162.915 48.9551 162.422 48.5183C161.927 48.0826 161.553 47.5506 161.298 46.9212C161.043 46.2906 160.951 45.5554 161.024 44.717L161.514 39.0214C161.587 38.1959 161.81 37.4678 162.189 36.8384C162.567 36.2077 163.047 35.6828 163.63 35.2624C164.21 34.8432 164.864 34.5261 165.59 34.3159C166.315 34.1069 167.055 34 167.806 34C168.558 34 169.278 34.1139 169.967 34.337C170.656 34.5625 171.254 34.8878 171.761 35.3164C172.27 35.7439 172.66 36.277 172.93 36.9147C173.199 37.5524 173.297 38.2851 173.227 39.1095L172.744 44.717ZM170.144 39.6497C170.188 39.1389 170.144 38.7091 170.013 38.3556C169.88 38.0033 169.691 37.7132 169.446 37.4889C169.198 37.2658 168.914 37.0991 168.591 36.9934C168.266 36.89 167.929 36.8372 167.574 36.8372C167.219 36.8372 166.868 36.89 166.52 36.9934C166.17 37.0991 165.852 37.2646 165.568 37.4889C165.284 37.7132 165.045 38.0033 164.852 38.3556C164.657 38.7091 164.54 39.1389 164.494 39.6497L164.106 44.1744C164.061 44.6853 164.105 45.1198 164.236 45.4803C164.368 45.8408 164.556 46.1332 164.803 46.3587C165.051 46.583 165.338 46.7439 165.67 46.8413C166.001 46.9388 166.344 46.987 166.698 46.987C167.054 46.987 167.399 46.9388 167.743 46.8413C168.084 46.7439 168.395 46.583 168.68 46.3587C168.967 46.1332 169.205 45.8408 169.399 45.4803C169.594 45.1186 169.713 44.6841 169.757 44.1744L170.144 39.6497Z" fill="white"/>
<path d="M186.744 44.717C186.671 45.5554 186.453 46.2906 186.089 46.9212C185.726 47.5506 185.259 48.0826 184.692 48.5183C184.124 48.9551 183.472 49.2816 182.739 49.4977C182.004 49.7149 181.24 49.823 180.445 49.823C179.649 49.823 178.901 49.7138 178.205 49.4977C177.508 49.2816 176.915 48.9551 176.422 48.5183C175.927 48.0826 175.553 47.5506 175.298 46.9212C175.043 46.2906 174.951 45.5554 175.024 44.717L175.514 39.0214C175.587 38.1959 175.81 37.4678 176.189 36.8384C176.567 36.2077 177.047 35.6828 177.63 35.2624C178.21 34.8432 178.864 34.5261 179.59 34.3159C180.315 34.1069 181.055 34 181.806 34C182.558 34 183.278 34.1139 183.967 34.337C184.656 34.5625 185.254 34.8878 185.761 35.3164C186.27 35.7439 186.66 36.277 186.93 36.9147C187.199 37.5524 187.297 38.2851 187.227 39.1095L186.744 44.717ZM184.144 39.6497C184.188 39.1389 184.144 38.7091 184.013 38.3556C183.88 38.0033 183.691 37.7132 183.446 37.4889C183.198 37.2658 182.914 37.0991 182.591 36.9934C182.266 36.89 181.929 36.8372 181.574 36.8372C181.219 36.8372 180.868 36.89 180.52 36.9934C180.17 37.0991 179.852 37.2646 179.568 37.4889C179.284 37.7132 179.045 38.0033 178.852 38.3556C178.657 38.7091 178.54 39.1389 178.494 39.6497L178.106 44.1744C178.061 44.6853 178.105 45.1198 178.236 45.4803C178.368 45.8408 178.556 46.1332 178.803 46.3587C179.051 46.583 179.338 46.7439 179.67 46.8413C180.001 46.9388 180.344 46.987 180.698 46.987C181.054 46.987 181.399 46.9388 181.743 46.8413C182.084 46.7439 182.395 46.583 182.68 46.3587C182.967 46.1332 183.205 45.8408 183.399 45.4803C183.594 45.1186 183.713 44.6841 183.757 44.1744L184.144 39.6497Z" fill="white"/>
</svg>
